PathFileType	4	(X/Y/Z)	/home/nbianco/projects/addbio/data/HamnerRunning2013/Processed/subject04//results/MarkerData/run500.trc
DataRate	CameraRate	NumFrames	NumMarkers	Units	OrigDataRate	OrigDataStartFrame	OrigNumFrames
100	100	10	41	m	100	0	187
Frame#	Time	C7			CLAV			LACR			LASI			LCAL			LFAradius			LFAsuperior			LFAulna			LLEL			LMEL			LPSI			LTB1			LTB2			LTB3			LTH1			LTH2			LTH3			LTOE			LUA1			LUA2			LUA3			RACR			RASI			RCAL			RFAradius			RFAsuperior			RFAulna			RLEL			RMEL			RMT5			RPSI			RTB1			RTB2			RTB3			RTH1			RTH2			RTH3			RTOE			RUA1			RUA2			RUA3		
		X1	Y1	Z1	X2	Y2	Z2	X3	Y3	Z3	X4	Y4	Z4	X5	Y5	Z5	X6	Y6	Z6	X7	Y7	Z7	X8	Y8	Z8	X9	Y9	Z9	X10	Y10	Z10	X11	Y11	Z11	X12	Y12	Z12	X13	Y13	Z13	X14	Y14	Z14	X15	Y15	Z15	X16	Y16	Z16	X17	Y17	Z17	X18	Y18	Z18	X19	Y19	Z19	X20	Y20	Z20	X21	Y21	Z21	X22	Y22	Z22	X23	Y23	Z23	X24	Y24	Z24	X25	Y25	Z25	X26	Y26	Z26	X27	Y27	Z27	X28	Y28	Z28	X29	Y29	Z29	X30	Y30	Z30	X31	Y31	Z31	X32	Y32	Z32	X33	Y33	Z33	X34	Y34	Z34	X35	Y35	Z35	X36	Y36	Z36	X37	Y37	Z37	X38	Y38	Z38	X39	Y39	Z39	X40	Y40	Z40	X41	Y41	Z41

1	0.26	1.10007	1.5432	-0.400773	1.19057	1.44038	-0.347951	1.19252	1.5316	-0.533295	1.12191	0.979027	-0.545049	0.421978	0.543678	-0.465587	1.27655	1.22843	-0.53378	1.17366	1.23278	-0.678318	1.2866	1.16308	-0.561702	1.10007	1.26006	-0.722383	1.0367	1.24206	-0.656823	0.958611	1.05645	-0.483837	0.674681	0.44844	-0.471129	0.609383	0.470088	-0.5175	0.533484	0.443642	-0.462406	1.01111	0.838023	-0.602367	1.00688	0.697828	-0.560497	0.887113	0.623989	-0.554579	0.35415	0.320182	-0.417647	1.16135	1.43308	-0.640797	1.07801	1.39387	-0.659833	1.11848	1.32601	-0.695647	1.12342	1.49504	-0.225424	1.10548	1.00785	-0.297819	1.30596	0.0959318	-0.408274	1.00726	1.19973	-0.160406	0.88632	1.32582	-0.148009	0.949394	1.16369	-0.142756	0.828302	1.38701	-0.17035	0.831471	1.37535	-0.26346	1.52615	0.189222	-0.349601	0.943899	1.05806	-0.39003	1.32304	0.417561	-0.360779	1.31701	0.30194	-0.32782	1.36521	0.250943	-0.395853	1.09539	0.8553	-0.238885	1.16973	0.777708	-0.246517	1.16329	0.629917	-0.273972	1.50487	0.225771	-0.41884	0.998276	1.44379	-0.168257	0.946845	1.47228	-0.208857	0.907306	1.41892	-0.176048
2	0.27	1.10056	1.53834	-0.400414	1.19093	1.43486	-0.349033	1.19185	1.52494	-0.536275	1.12367	0.976871	-0.546029	0.44102	0.567386	-0.462566	1.26916	1.20851	-0.541176	1.16229	1.22393	-0.682122	1.27326	1.14279	-0.570113	1.08942	1.25718	-0.722833	1.02612	1.24082	-0.656063	0.959149	1.05166	-0.485717	0.685999	0.450131	-0.475606	0.622442	0.479334	-0.520175	0.545018	0.457661	-0.465617	1.01519	0.834076	-0.60396	1.01183	0.694327	-0.564982	0.895638	0.617096	-0.557622	0.358532	0.346857	-0.426459	1.15582	1.42929	-0.641693	1.07137	1.39158	-0.658355	1.10991	1.32267	-0.696197	1.12587	1.48858	-0.225138	1.1055	1.00495	-0.299083	1.28799	0.0866344	-0.410238	1.01953	1.18932	-0.155906	0.896139	1.31181	-0.139631	0.963423	1.15212	-0.134976	0.835205	1.37142	-0.159873	0.835196	1.35959	-0.253197	1.50952	0.172621	-0.346844	0.944346	1.05374	-0.391748	1.31293	0.406858	-0.360702	1.30342	0.290894	-0.328094	1.35099	0.239449	-0.395616	1.09359	0.845792	-0.237954	1.16453	0.766742	-0.242799	1.15715	0.622486	-0.275914	1.49068	0.210894	-0.415902	1.00297	1.43429	-0.164574	0.949509	1.46088	-0.203337	0.912938	1.4065	-0.168827
3	0.28	1.10085	1.53202	-0.399728	1.19132	1.42814	-0.350104	1.19063	1.51738	-0.539636	1.12503	0.974457	-0.547441	0.463102	0.586983	-0.460417	1.25988	1.18678	-0.549507	1.14958	1.21426	-0.686118	1.25793	1.12132	-0.579521	1.07762	1.25345	-0.723089	1.01515	1.23854	-0.654821	0.95926	1.04627	-0.487182	0.699848	0.450087	-0.480555	0.63857	0.486078	-0.523332	0.560152	0.46883	-0.469231	1.01894	0.829088	-0.605317	1.01942	0.689206	-0.568663	0.90617	0.608663	-0.560902	0.369296	0.36944	-0.434503	1.14925	1.42438	-0.642688	1.06395	1.38805	-0.656724	1.10025	1.31824	-0.696424	1.12806	1.48086	-0.224535	1.1052	1.00011	-0.300074	1.2618	0.0809596	-0.412866	1.03275	1.17772	-0.151171	0.906664	1.29625	-0.130386	0.978667	1.13917	-0.127252	0.842961	1.35403	-0.148462	0.839421	1.34183	-0.241414	1.48462	0.147072	-0.342228	0.944821	1.0486	-0.393359	1.30098	0.393736	-0.360435	1.2853	0.277694	-0.328883	1.33226	0.22491	-0.395695	1.09149	0.836147	-0.236841	1.1604	0.75824	-0.240756	1.15363	0.615061	-0.27937	1.47122	0.188069	-0.411315	1.00791	1.42289	-0.160337	0.952261	1.44743	-0.197028	0.918796	1.39239	-0.160632
4	0.29	1.10104	1.52434	-0.398639	1.19186	1.42038	-0.351151	1.18887	1.50914	-0.543287	1.12588	0.971369	-0.548969	0.48777	0.602564	-0.45959	1.24852	1.16348	-0.558757	1.13552	1.20371	-0.690171	1.2406	1.09891	-0.589943	1.06481	1.24893	-0.723107	1.00412	1.23528	-0.653231	0.958616	1.04029	-0.488202	0.716275	0.448271	-0.485584	0.657624	0.490075	-0.526726	0.578702	0.477012	-0.472953	1.02224	0.823098	-0.606326	1.02926	0.682577	-0.571871	0.918637	0.598787	-0.564583	0.386143	0.387618	-0.441393	1.14171	1.41824	-0.643753	1.05581	1.38338	-0.654982	1.08955	1.31265	-0.696198	1.13018	1.4722	-0.223674	1.1046	0.993929	-0.300574	1.22919	0.080051	-0.416287	1.04681	1.16494	-0.146318	0.917907	1.27932	-0.120441	0.994999	1.12488	-0.119768	0.851666	1.33503	-0.136315	0.844264	1.32236	-0.22847	1.45298	0.115474	-0.337694	0.944831	1.0428	-0.394721	1.28808	0.379855	-0.360039	1.26411	0.264247	-0.330469	1.31022	0.209395	-0.396667	1.08883	0.827559	-0.236474	1.15684	0.752	-0.241043	1.15122	0.607443	-0.282789	1.44715	0.159054	-0.40701	1.01308	1.40972	-0.155496	0.955016	1.43193	-0.18983	0.924968	1.37649	-0.15154
5	0.3	1.10132	1.5158	-0.397127	1.19273	1.41192	-0.35219	1.18661	1.50053	-0.547088	1.12601	0.967056	-0.549978	0.514538	0.614193	-0.460631	1.23491	1.13922	-0.569	1.12007	1.19238	-0.694039	1.22134	1.07613	-0.60151	1.05118	1.24377	-0.722732	0.993012	1.2312	-0.651226	0.956762	1.03384	-0.488868	0.735548	0.44484	-0.490073	0.679469	0.491005	-0.530053	0.600473	0.482081	-0.476384	1.0251	0.816235	-0.606768	1.04018	0.675016	-0.574862	0.932877	0.58757	-0.568522	0.408389	0.40108	-0.44684	1.13338	1.41088	-0.644835	1.04702	1.37771	-0.653179	1.07792	1.30592	-0.695336	1.13243	1.4631	-0.22255	1.10375	0.987418	-0.300673	1.19228	0.0837826	-0.42034	1.06163	1.151	-0.141546	0.929951	1.26112	-0.110024	1.01228	1.1093	-0.112785	0.861483	1.31464	-0.12372	0.850058	1.30149	-0.214956	1.41665	0.084782	-0.335909	0.943871	1.03661	-0.395975	1.2753	0.368042	-0.359852	1.24211	0.253772	-0.332864	1.2858	0.196434	-0.399075	1.08529	0.821316	-0.237369	1.15324	0.747504	-0.243394	1.14862	0.60062	-0.284308	1.41847	0.128646	-0.405889	1.0186	1.39482	-0.150015	0.957908	1.41448	-0.181494	0.931824	1.35845	-0.141873
6	0.31	1.10188	1.50746	-0.395371	1.19394	1.40324	-0.353341	1.184	1.49192	-0.550844	1.1252	0.961431	-0.550129	0.543045	0.621759	-0.463874	1.21906	1.11499	-0.580209	1.10327	1.18076	-0.697425	1.20028	1.05391	-0.614379	1.03687	1.23829	-0.721775	0.981491	1.22655	-0.648506	0.953582	1.02721	-0.489463	0.758128	0.44024	-0.493379	0.704099	0.48872	-0.533135	0.625356	0.484037	-0.479331	1.02772	0.808735	-0.606495	1.05117	0.667581	-0.577519	0.948838	0.575335	-0.572068	0.435089	0.409555	-0.451043	1.12458	1.40266	-0.645853	1.03767	1.37133	-0.651268	1.06559	1.29836	-0.693769	1.13491	1.45407	-0.221082	1.10262	0.981254	-0.300823	1.15205	0.0899203	-0.424253	1.07734	1.13604	-0.137078	0.943145	1.24158	-0.0994656	1.03055	1.09266	-0.106507	0.872729	1.2929	-0.110968	0.857349	1.27928	-0.201373	1.37676	0.0626572	-0.337768	0.941842	1.0303	-0.397741	1.26265	0.360287	-0.360551	1.22059	0.248572	-0.335427	1.25858	0.188661	-0.402667	1.08069	0.817835	-0.238627	1.14947	0.744407	-0.246081	1.14603	0.596358	-0.283328	1.38416	0.10311	-0.409193	1.02495	1.37819	-0.144212	0.961563	1.39547	-0.171769	0.940019	1.338	-0.13224
7	0.32	1.10285	1.50071	-0.393773	1.19516	1.39491	-0.354812	1.18127	1.48367	-0.554285	1.12333	0.955174	-0.549933	0.572708	0.625054	-0.469282	1.20107	1.09205	-0.592053	1.0855	1.16995	-0.700107	1.17755	1.03365	-0.628427	1.022	1.23309	-0.720198	0.969444	1.22181	-0.644955	0.94959	1.02087	-0.490384	0.784426	0.435034	-0.49514	0.731621	0.48353	-0.535938	0.653263	0.483048	-0.481941	1.03052	0.801071	-0.605607	1.06229	0.66151	-0.579542	0.966763	0.56306	-0.574587	0.465398	0.412685	-0.454594	1.11592	1.39439	-0.646699	1.02804	1.36485	-0.649006	1.05293	1.29086	-0.691622	1.13745	1.44552	-0.219362	1.10068	0.975606	-0.301088	1.10864	0.0957421	-0.427026	1.09438	1.12059	-0.133127	0.958352	1.22088	-0.0894694	1.05015	1.07554	-0.101043	0.886028	1.26995	-0.0984603	0.866629	1.25575	-0.188008	1.33355	0.0521986	-0.341473	0.938928	1.02426	-0.400479	1.24869	0.356229	-0.362634	1.19854	0.248262	-0.337254	1.22733	0.185915	-0.406345	1.07508	0.816471	-0.238846	1.14563	0.742781	-0.247387	1.14402	0.595187	-0.280746	1.34362	0.0865372	-0.415056	1.03282	1.36028	-0.138973	0.966899	1.37588	-0.160918	0.950189	1.31578	-0.12336
8	0.33	1.1041	1.49642	-0.392808	1.19595	1.38759	-0.35675	1.17861	1.47619	-0.557158	1.12064	0.949465	-0.55041	0.602507	0.62401	-0.476283	1.18113	1.07191	-0.603932	1.06744	1.16155	-0.702148	1.15323	1.01688	-0.642962	1.00668	1.22919	-0.718239	0.957147	1.21788	-0.640975	0.945728	1.01541	-0.49186	0.814496	0.429668	-0.495603	0.762131	0.476352	-0.538502	0.683974	0.479421	-0.484585	1.03395	0.794107	-0.604429	1.07458	0.657795	-0.580791	0.987094	0.552376	-0.576077	0.498846	0.410101	-0.458158	1.10795	1.38718	-0.647302	1.01858	1.35938	-0.646014	1.04024	1.28486	-0.689192	1.13986	1.4379	-0.217912	1.0972	0.970639	-0.300682	1.06234	0.0998056	-0.428164	1.11335	1.10595	-0.129986	0.976702	1.20001	-0.0812134	1.07167	1.05912	-0.0965038	0.902102	1.24657	-0.0868823	0.87798	1.23153	-0.175141	1.28741	0.050302	-0.34421	0.935382	1.01923	-0.403762	1.23145	0.353378	-0.365804	1.17351	0.249942	-0.337985	1.19154	0.185438	-0.408951	1.06887	0.815955	-0.237769	1.14134	0.742467	-0.247193	1.14168	0.595349	-0.278173	1.29793	0.0785902	-0.420014	1.04256	1.34257	-0.135378	0.974454	1.35718	-0.15018	0.962494	1.29381	-0.115816
9	0.34	1.10521	1.49427	-0.392751	1.19608	1.38184	-0.359082	1.17593	1.47006	-0.559411	1.11773	0.945357	-0.552035	0.631247	0.618803	-0.483735	1.15971	1.05611	-0.615168	1.04961	1.15699	-0.703953	1.12756	1.00495	-0.656695	0.991125	1.22797	-0.716318	0.944945	1.21606	-0.637353	0.942765	1.01145	-0.493637	0.847847	0.424471	-0.495516	0.795468	0.468465	-0.540873	0.717003	0.473541	-0.487519	1.03808	0.78894	-0.603325	1.0889	0.656934	-0.581392	1.01016	0.544934	-0.577143	0.535293	0.401693	-0.462259	1.10071	1.38213	-0.647717	1.0096	1.35628	-0.642075	1.02758	1.282	-0.686881	1.14218	1.43174	-0.217495	1.09222	0.966868	-0.298734	1.01406	0.102262	-0.428026	1.13454	1.09409	-0.128242	0.998569	1.18105	-0.075887	1.09561	1.04527	-0.0932514	0.921047	1.22448	-0.0771841	0.890989	1.20824	-0.16335	1.23925	0.0512809	-0.344651	0.931617	1.01592	-0.406408	1.20954	0.348794	-0.369071	1.14368	0.250249	-0.338148	1.15194	0.184107	-0.410162	1.06291	0.815192	-0.236607	1.13584	0.742185	-0.24677	1.13635	0.593985	-0.277004	1.24941	0.0757406	-0.422046	1.05366	1.32741	-0.133895	0.983796	1.34078	-0.14148	0.976373	1.27478	-0.109922
10	0.35	1.10555	1.49312	-0.393481	1.1958	1.37807	-0.361536	1.17276	1.46591	-0.561241	1.11514	0.943232	-0.554113	0.658093	0.609741	-0.490198	1.1376	1.04605	-0.62518	1.03194	1.15699	-0.706	1.10115	0.998648	-0.668122	0.975576	1.23065	-0.714809	0.932843	1.21775	-0.634701	0.940829	1.00928	-0.494983	0.883488	0.419825	-0.49554	0.830992	0.460979	-0.543058	0.751581	0.465836	-0.490596	1.04235	0.786329	-0.602557	1.10517	0.659038	-0.581581	1.03587	0.541702	-0.578385	0.574659	0.387833	-0.467252	1.09356	1.38005	-0.648107	1.00092	1.35669	-0.637417	1.01478	1.28344	-0.685074	1.14467	1.42759	-0.218505	1.08701	0.964769	-0.295534	0.964914	0.104017	-0.427452	1.15745	1.08718	-0.12886	1.02258	1.16642	-0.0739087	1.1219	1.03624	-0.0920305	0.94171	1.20596	-0.0702268	0.905123	1.18806	-0.153607	1.19007	0.0515359	-0.343665	0.928321	1.0146	-0.407359	1.18267	0.340934	-0.371618	1.10918	0.247541	-0.338651	1.10985	0.180723	-0.410666	1.0581	0.813696	-0.236607	1.12868	0.739688	-0.247249	1.12564	0.589304	-0.277771	1.20006	0.0744104	-0.421857	1.06485	1.31681	-0.13401	0.993715	1.32748	-0.136276	0.990779	1.26054	-0.10579
